# xmcd
# Copyright (C) 1995-1998 Ti Kan
#
# Track frame offsets:
#       150
#       20115
#       38286
#       59178
#       82467
#       95459
#       115315
#       127590
#       140294
#       152410
#       165864
#       191223
#       209766
#       230761
#       253329
#       270719
#       290772
#       312038
#
# Disc length: 4428 seconds
#
# Revision: 0
# Processed by: cddbd v1.5.2PL0 Copyright (c) Steve Scherf et al.
# Submitted via: CD-Transfer v1.0
#
DISCID=0b114a12
DTITLE=Various Artist - 
DYEAR=04
DGENRE=
TTITLE0=Bach - Schafe können sicher weiden - A. Mayer
TTITLE1=Strauss - Der Bürger als Edelmann - E. Ormandy
TTITLE2=Tschaikowsky - Nocture d-Moll - Mischa Maisky
TTITLE3=C. Stamitz - Klarinettenkozert - Sabine Meyer
TTITLE4=Satie - Tendrement - W.E. Schmidt
TTITLE5=Respighi - Die Vögel - E. Ormandy
TTITLE6=Debussy - Préludes - Paul Crossley
TTITLE7=Bernstein - West Side Story - New York Phil. Orchestra
TTITLE8=Dvorak - Zigeunermelodien - Joshua Bell
TTITLE9=Vivaldi - Concerto Grosso d-Moll - C.P.E.Bach
TTITLE10=Braga - La Serenata - Bremer Kaffeehaus Orchester
TTITLE11=Rubinstein - Sechs Charakterbilder - Yaara Tal 
TTITLE12=Lovelady - Incantation No. 1 - Slava Grigoryan
TTITLE13=Warbeck - Die Liebe der Charlotte Gray
TTITLE14=Schostakowitsch - The Gadfly - Orchester André Kostelanetz
TTITLE15=Morricore - Die Legende vom Ozeanpianisten 
TTITLE16=Lalo - Violinkonzert F-Dur - Thomas Christian
TTITLE17=Röever/Korb - Highland Cathedral - Phil Coulte 
EXTD=
EXTT0=
EXTT1=
EXTT2=
EXTT3=
EXTT4=
EXTT5=
EXTT6=
EXTT7=
EXTT8=
EXTT9=
EXTT10=
EXTT11=
EXTT12=
EXTT13=
EXTT14=
EXTT15=
EXTT16=
EXTT17=
PLAYORDER=
